<svg xmlns="http://www.w3.org/2000/svg" width="19" height="13">
    <path fill="#002542" fill-rule="evenodd" d="M18.81 10.188s-.186 1.274-.755 1.835c-.723.736-1.533.74-1.904.783-2.659.187-6.651.193-6.651.193s-4.94-.044-6.46-.186c-.423-.077-1.373-.054-2.095-.79-.57-.561-.755-1.835-.755-1.835S0 8.693 0 7.197V5.795c0-1.496.19-2.992.19-2.992S.375 1.529.945.968C1.667.232 2.477.229 2.849.185c2.658-.186 6.647-.186 6.647-.186h.008s3.988 0 6.647.186c.371.044 1.181.047 1.904.783.569.561.755 1.835.755 1.835S19 4.299 19 5.795v1.402c0 1.496-.19 2.991-.19 2.991zM7.516 3.855v5.206l5.043-2.657-5.043-2.549z"/>
</svg>
