<svg xmlns="http://www.w3.org/2000/svg" width="17" height="17">
    <path fill="#002542" fill-rule="evenodd" d="M16.368.63c-.428-.429-.942-.642-1.54-.642H2.172C1.573-.012 1.06.201.631.63c-.429.428-.643.942-.643 1.539v12.644c0 .597.214 1.111.643 1.539.429.428.942.643 1.541.643h12.656c.598 0 1.112-.215 1.54-.643.428-.428.643-.942.643-1.539V2.169c0-.597-.215-1.111-.643-1.539zM6.1 6.116c.669-.646 1.472-.969 2.411-.969.945 0 1.753.323 2.421.969.669.645 1.003 1.427 1.003 2.341 0 .916-.334 1.696-1.003 2.342-.668.645-1.475.969-2.421.969-.939 0-1.742-.324-2.411-.969-.668-.646-1.003-1.426-1.003-2.342 0-.914.335-1.696 1.003-2.341zm8.983 8.242c0 .193-.067.353-.2.482-.133.13-.292.194-.477.194H2.56c-.193 0-.353-.064-.483-.194-.129-.129-.193-.289-.193-.482V7.184h1.562c-.148.465-.222.949-.222 1.451 0 1.417.518 2.626 1.552 3.625 1.034 1.001 2.279 1.501 3.735 1.501.96 0 1.847-.229 2.66-.686.812-.458 1.455-1.079 1.928-1.866.473-.787.709-1.644.709-2.574 0-.502-.074-.986-.222-1.451h1.497v7.174zm0-9.887c0 .216-.074.396-.222.543-.148.148-.329.222-.543.222h-1.929c-.213 0-.395-.074-.543-.222-.147-.147-.221-.327-.221-.543V2.645c0-.206.074-.385.221-.537.148-.151.33-.227.543-.227h1.929c.214 0 .395.076.543.227.148.152.222.331.222.537v1.826z"/>
</svg>
